<svg width="777" height="223" viewBox="0 0 777 223" fill="none" xmlns="http://www.w3.org/2000/svg">
<path d="M57.368 183V37.592H0.024V3.79999H156.184V37.592H98.84V183H57.368ZM236.128 186.072C221.792 186.072 208.053 184.195 194.912 180.44C181.771 176.515 171.189 171.48 163.168 165.336L177.248 134.104C184.928 139.565 193.973 144.088 204.384 147.672C214.965 151.085 225.632 152.792 236.384 152.792C244.576 152.792 251.147 152.024 256.096 150.488C261.216 148.781 264.971 146.477 267.36 143.576C269.749 140.675 270.944 137.347 270.944 133.592C270.944 128.813 269.067 125.059 265.312 122.328C261.557 119.427 256.608 117.123 250.464 115.416C244.32 113.539 237.493 111.832 229.984 110.296C222.645 108.589 215.221 106.541 207.712 104.152C200.373 101.763 193.632 98.6907 187.488 94.936C181.344 91.1813 176.309 86.232 172.384 80.088C168.629 73.944 166.752 66.0933 166.752 56.536C166.752 46.296 169.483 36.9947 174.944 28.632C180.576 20.0987 188.939 13.3573 200.032 8.40799C211.296 3.28799 225.376 0.727997 242.272 0.727997C253.536 0.727997 264.629 2.09333 275.552 4.82399C286.475 7.38399 296.117 11.3093 304.48 16.6L291.68 48.088C283.317 43.3093 274.955 39.8107 266.592 37.592C258.229 35.2027 250.037 34.008 242.016 34.008C233.995 34.008 227.424 34.9467 222.304 36.824C217.184 38.7013 213.515 41.176 211.296 44.248C209.077 47.1493 207.968 50.5627 207.968 54.488C207.968 59.096 209.845 62.8507 213.6 65.752C217.355 68.4827 222.304 70.7013 228.448 72.408C234.592 74.1147 241.333 75.8213 248.672 77.528C256.181 79.2347 263.605 81.1973 270.944 83.416C278.453 85.6347 285.28 88.6213 291.424 92.376C297.568 96.1307 302.517 101.08 306.272 107.224C310.197 113.368 312.16 121.133 312.16 130.52C312.16 140.589 309.344 149.805 303.712 158.168C298.08 166.531 289.632 173.272 278.368 178.392C267.275 183.512 253.195 186.072 236.128 186.072ZM351.536 93.144C344.709 93.144 338.821 90.84 333.872 86.232C329.093 81.4533 326.704 75.3947 326.704 68.056C326.704 60.7173 329.093 54.8293 333.872 50.392C338.821 45.784 344.709 43.48 351.536 43.48C358.533 43.48 364.421 45.784 369.2 50.392C373.979 54.8293 376.368 60.7173 376.368 68.056C376.368 75.3947 373.979 81.4533 369.2 86.232C364.421 90.84 358.533 93.144 351.536 93.144ZM329.52 222.424L346.416 160.984L352.048 184.024C344.709 184.024 338.651 181.891 333.872 177.624C329.264 173.357 326.96 167.469 326.96 159.96C326.96 152.451 329.349 146.477 334.128 142.04C338.907 137.603 344.795 135.384 351.792 135.384C358.96 135.384 364.848 137.688 369.456 142.296C374.064 146.733 376.368 152.621 376.368 159.96C376.368 162.179 376.197 164.397 375.856 166.616C375.515 168.664 374.832 171.224 373.808 174.296C372.955 177.197 371.504 180.952 369.456 185.56L354.864 222.424H329.52Z" fill="#106BFF"/>
<path d="M406.248 183V3.79999H487.656C507.112 3.79999 524.264 7.55466 539.112 15.064C553.96 22.4027 565.565 32.728 573.928 46.04C582.291 59.352 586.472 75.1387 586.472 93.4C586.472 111.491 582.291 127.277 573.928 140.76C565.565 154.072 553.96 164.483 539.112 171.992C524.264 179.331 507.112 183 487.656 183H406.248ZM447.72 148.952H485.608C497.555 148.952 507.88 146.733 516.584 142.296C525.459 137.688 532.285 131.203 537.064 122.84C542.013 114.477 544.488 104.664 544.488 93.4C544.488 81.9653 542.013 72.152 537.064 63.96C532.285 55.5973 525.459 49.1973 516.584 44.76C507.88 40.152 497.555 37.848 485.608 37.848H447.72V148.952ZM617.748 183V3.79999H695.316C711.359 3.79999 725.183 6.44532 736.788 11.736C748.393 16.856 757.353 24.28 763.668 34.008C769.983 43.736 773.14 55.3413 773.14 68.824C773.14 82.136 769.983 93.656 763.668 103.384C757.353 112.941 748.393 120.28 736.788 125.4C725.183 130.52 711.359 133.08 695.316 133.08H640.788L659.22 114.904V183H617.748ZM731.668 183L686.868 117.976H731.156L776.468 183H731.668ZM659.22 119.512L640.788 100.056H693.012C705.812 100.056 715.369 97.3253 721.684 91.864C727.999 86.232 731.156 78.552 731.156 68.824C731.156 58.9253 727.999 51.2453 721.684 45.784C715.369 40.3227 705.812 37.592 693.012 37.592H640.788L659.22 17.88V119.512Z" fill="white"/>
</svg>
